<?xml version="1.0" standalone="no"?>
<!DOCTYPE svg PUBLIC "-//W3C//DTD SVG 1.1//EN" "http://www.w3.org/Graphics/SVG/1.1/DTD/svg11.dtd">
<svg width="800" height="600" version="1.1" xmlns="http://www.w3.org/2000/svg">
<rect width="800" height="600" x="0" y="0" style="fill:rgb(238,238,238);stroke:none"/>
<rect width="800" height="600" x="0" y="0" style="fill:rgb(255,255,255);stroke:none"/>
<text x="2" y="566" fill="rgb(0,0,0)" font-family="Arial" font-size="12">0</text>
<text x="2" y="505" fill="rgb(0,0,0)" font-family="Arial" font-size="12">100000</text>
<text x="2" y="443" fill="rgb(0,0,0)" font-family="Arial" font-size="12">200000</text>
<text x="2" y="382" fill="rgb(0,0,0)" font-family="Arial" font-size="12">300000</text>
<text x="2" y="320" fill="rgb(0,0,0)" font-family="Arial" font-size="12">400000</text>
<text x="2" y="259" fill="rgb(0,0,0)" font-family="Arial" font-size="12">500000</text>
<text x="2" y="197" fill="rgb(0,0,0)" font-family="Arial" font-size="12">600000</text>
<text x="2" y="136" fill="rgb(0,0,0)" font-family="Arial" font-size="12">700000</text>
<text x="2" y="74" fill="rgb(0,0,0)" font-family="Arial" font-size="12">800000</text>
<text x="282" y="30" fill="rgb(0,0,0)" font-family="Arial" font-size="12">Quality score distribution over all sequences</text>
<line x1="53" y1="560" x2="790" y2="560" stroke="rgb(0,0,0)" stroke-width="1"/>
<line x1="53" y1="560" x2="53" y2="40" stroke="rgb(0,0,0)" stroke-width="1"/>
<text x="281" y="595" fill="rgb(0,0,0)" font-family="Arial" font-size="12">Mean Sequence Quality (Phred Score)</text>
<text x="62" y="575" fill="rgb(0,0,0)" font-family="Arial" font-size="12">18</text>
<rect width="35" height="520" x="88" y="40" style="fill:rgb(230,230,230);stroke:none"/>
<text x="97" y="575" fill="rgb(0,0,0)" font-family="Arial" font-size="12">19</text>
<text x="132" y="575" fill="rgb(0,0,0)" font-family="Arial" font-size="12">20</text>
<rect width="35" height="520" x="158" y="40" style="fill:rgb(230,230,230);stroke:none"/>
<text x="167" y="575" fill="rgb(0,0,0)" font-family="Arial" font-size="12">21</text>
<text x="202" y="575" fill="rgb(0,0,0)" font-family="Arial" font-size="12">22</text>
<rect width="35" height="520" x="228" y="40" style="fill:rgb(230,230,230);stroke:none"/>
<text x="237" y="575" fill="rgb(0,0,0)" font-family="Arial" font-size="12">23</text>
<text x="272" y="575" fill="rgb(0,0,0)" font-family="Arial" font-size="12">24</text>
<rect width="35" height="520" x="298" y="40" style="fill:rgb(230,230,230);stroke:none"/>
<text x="307" y="575" fill="rgb(0,0,0)" font-family="Arial" font-size="12">25</text>
<text x="342" y="575" fill="rgb(0,0,0)" font-family="Arial" font-size="12">26</text>
<rect width="35" height="520" x="368" y="40" style="fill:rgb(230,230,230);stroke:none"/>
<text x="377" y="575" fill="rgb(0,0,0)" font-family="Arial" font-size="12">27</text>
<text x="412" y="575" fill="rgb(0,0,0)" font-family="Arial" font-size="12">28</text>
<rect width="35" height="520" x="438" y="40" style="fill:rgb(230,230,230);stroke:none"/>
<text x="447" y="575" fill="rgb(0,0,0)" font-family="Arial" font-size="12">29</text>
<text x="482" y="575" fill="rgb(0,0,0)" font-family="Arial" font-size="12">30</text>
<rect width="35" height="520" x="508" y="40" style="fill:rgb(230,230,230);stroke:none"/>
<text x="517" y="575" fill="rgb(0,0,0)" font-family="Arial" font-size="12">31</text>
<text x="552" y="575" fill="rgb(0,0,0)" font-family="Arial" font-size="12">32</text>
<rect width="35" height="520" x="578" y="40" style="fill:rgb(230,230,230);stroke:none"/>
<text x="587" y="575" fill="rgb(0,0,0)" font-family="Arial" font-size="12">33</text>
<text x="622" y="575" fill="rgb(0,0,0)" font-family="Arial" font-size="12">34</text>
<rect width="35" height="520" x="648" y="40" style="fill:rgb(230,230,230);stroke:none"/>
<text x="657" y="575" fill="rgb(0,0,0)" font-family="Arial" font-size="12">35</text>
<text x="692" y="575" fill="rgb(0,0,0)" font-family="Arial" font-size="12">36</text>
<rect width="35" height="520" x="718" y="40" style="fill:rgb(230,230,230);stroke:none"/>
<text x="727" y="575" fill="rgb(0,0,0)" font-family="Arial" font-size="12">37</text>
<text x="762" y="575" fill="rgb(0,0,0)" font-family="Arial" font-size="12">38</text>
<line x1="53" y1="560" x2="790" y2="560" stroke="rgb(180,180,180)" stroke-width="1"/>
<line x1="53" y1="499" x2="790" y2="499" stroke="rgb(180,180,180)" stroke-width="1"/>
<line x1="53" y1="437" x2="790" y2="437" stroke="rgb(180,180,180)" stroke-width="1"/>
<line x1="53" y1="376" x2="790" y2="376" stroke="rgb(180,180,180)" stroke-width="1"/>
<line x1="53" y1="314" x2="790" y2="314" stroke="rgb(180,180,180)" stroke-width="1"/>
<line x1="53" y1="253" x2="790" y2="253" stroke="rgb(180,180,180)" stroke-width="1"/>
<line x1="53" y1="191" x2="790" y2="191" stroke="rgb(180,180,180)" stroke-width="1"/>
<line x1="53" y1="130" x2="790" y2="130" stroke="rgb(180,180,180)" stroke-width="1"/>
<line x1="53" y1="68" x2="790" y2="68" stroke="rgb(180,180,180)" stroke-width="1"/>
<line x1="70" y1="560" x2="105" y2="560" stroke="rgb(136,34,85)" stroke-width="1"/>
<line x1="105" y1="560" x2="140" y2="560" stroke="rgb(136,34,85)" stroke-width="1"/>
<line x1="140" y1="560" x2="175" y2="560" stroke="rgb(136,34,85)" stroke-width="1"/>
<line x1="175" y1="560" x2="210" y2="560" stroke="rgb(136,34,85)" stroke-width="1"/>
<line x1="210" y1="560" x2="245" y2="559" stroke="rgb(136,34,85)" stroke-width="1"/>
<line x1="245" y1="559" x2="280" y2="558" stroke="rgb(136,34,85)" stroke-width="1"/>
<line x1="280" y1="558" x2="315" y2="557" stroke="rgb(136,34,85)" stroke-width="1"/>
<line x1="315" y1="557" x2="350" y2="556" stroke="rgb(136,34,85)" stroke-width="1"/>
<line x1="350" y1="556" x2="385" y2="554" stroke="rgb(136,34,85)" stroke-width="1"/>
<line x1="385" y1="554" x2="420" y2="553" stroke="rgb(136,34,85)" stroke-width="1"/>
<line x1="420" y1="553" x2="455" y2="551" stroke="rgb(136,34,85)" stroke-width="1"/>
<line x1="455" y1="551" x2="490" y2="548" stroke="rgb(136,34,85)" stroke-width="1"/>
<line x1="490" y1="548" x2="525" y2="545" stroke="rgb(136,34,85)" stroke-width="1"/>
<line x1="525" y1="545" x2="560" y2="541" stroke="rgb(136,34,85)" stroke-width="1"/>
<line x1="560" y1="541" x2="595" y2="535" stroke="rgb(136,34,85)" stroke-width="1"/>
<line x1="595" y1="535" x2="630" y2="526" stroke="rgb(136,34,85)" stroke-width="1"/>
<line x1="630" y1="526" x2="665" y2="509" stroke="rgb(136,34,85)" stroke-width="1"/>
<line x1="665" y1="509" x2="700" y2="464" stroke="rgb(136,34,85)" stroke-width="1"/>
<line x1="700" y1="464" x2="735" y2="40" stroke="rgb(136,34,85)" stroke-width="1"/>
<line x1="735" y1="40" x2="770" y2="274" stroke="rgb(136,34,85)" stroke-width="1"/>
<rect width="183" height="23" x="607" y="40" style="fill:rgb(255,255,255);stroke:none"/>
<rect width="183" height="23" x="607" y="40" rx="0" ry="0" style="fill:none;stroke-width:1;stroke:rgb(192,192,192)"/>
<text x="610" y="55" fill="rgb(136,34,85)" font-family="Arial" font-size="12" font-weight="bold">Average Quality per read</text>
</svg>
