<?xml version="1.0" standalone="no"?>
<!DOCTYPE svg PUBLIC "-//W3C//DTD SVG 1.1//EN" "http://www.w3.org/Graphics/SVG/1.1/DTD/svg11.dtd">
<svg width="800" height="600" version="1.1" xmlns="http://www.w3.org/2000/svg">
<rect width="800" height="600" x="0" y="0" style="fill:rgb(238,238,238);stroke:none"/>
<rect width="800" height="600" x="0" y="0" style="fill:rgb(255,255,255);stroke:none"/>
<text x="2" y="566" fill="rgb(0,0,0)" font-family="Arial" font-size="12">0</text>
<text x="2" y="507" fill="rgb(0,0,0)" font-family="Arial" font-size="12">100000</text>
<text x="2" y="447" fill="rgb(0,0,0)" font-family="Arial" font-size="12">200000</text>
<text x="2" y="387" fill="rgb(0,0,0)" font-family="Arial" font-size="12">300000</text>
<text x="2" y="327" fill="rgb(0,0,0)" font-family="Arial" font-size="12">400000</text>
<text x="2" y="267" fill="rgb(0,0,0)" font-family="Arial" font-size="12">500000</text>
<text x="2" y="207" fill="rgb(0,0,0)" font-family="Arial" font-size="12">600000</text>
<text x="2" y="148" fill="rgb(0,0,0)" font-family="Arial" font-size="12">700000</text>
<text x="2" y="88" fill="rgb(0,0,0)" font-family="Arial" font-size="12">800000</text>
<text x="282" y="30" fill="rgb(0,0,0)" font-family="Arial" font-size="12">Quality score distribution over all sequences</text>
<line x1="53" y1="560" x2="790" y2="560" stroke="rgb(0,0,0)" stroke-width="1"/>
<line x1="53" y1="560" x2="53" y2="40" stroke="rgb(0,0,0)" stroke-width="1"/>
<text x="281" y="595" fill="rgb(0,0,0)" font-family="Arial" font-size="12">Mean Sequence Quality (Phred Score)</text>
<text x="59" y="575" fill="rgb(0,0,0)" font-family="Arial" font-size="12">14</text>
<rect width="29" height="520" x="82" y="40" style="fill:rgb(230,230,230);stroke:none"/>
<text x="88" y="575" fill="rgb(0,0,0)" font-family="Arial" font-size="12">15</text>
<text x="117" y="575" fill="rgb(0,0,0)" font-family="Arial" font-size="12">16</text>
<rect width="29" height="520" x="140" y="40" style="fill:rgb(230,230,230);stroke:none"/>
<text x="146" y="575" fill="rgb(0,0,0)" font-family="Arial" font-size="12">17</text>
<text x="175" y="575" fill="rgb(0,0,0)" font-family="Arial" font-size="12">18</text>
<rect width="29" height="520" x="198" y="40" style="fill:rgb(230,230,230);stroke:none"/>
<text x="204" y="575" fill="rgb(0,0,0)" font-family="Arial" font-size="12">19</text>
<text x="233" y="575" fill="rgb(0,0,0)" font-family="Arial" font-size="12">20</text>
<rect width="29" height="520" x="256" y="40" style="fill:rgb(230,230,230);stroke:none"/>
<text x="262" y="575" fill="rgb(0,0,0)" font-family="Arial" font-size="12">21</text>
<text x="291" y="575" fill="rgb(0,0,0)" font-family="Arial" font-size="12">22</text>
<rect width="29" height="520" x="314" y="40" style="fill:rgb(230,230,230);stroke:none"/>
<text x="320" y="575" fill="rgb(0,0,0)" font-family="Arial" font-size="12">23</text>
<text x="349" y="575" fill="rgb(0,0,0)" font-family="Arial" font-size="12">24</text>
<rect width="29" height="520" x="372" y="40" style="fill:rgb(230,230,230);stroke:none"/>
<text x="378" y="575" fill="rgb(0,0,0)" font-family="Arial" font-size="12">25</text>
<text x="407" y="575" fill="rgb(0,0,0)" font-family="Arial" font-size="12">26</text>
<rect width="29" height="520" x="430" y="40" style="fill:rgb(230,230,230);stroke:none"/>
<text x="436" y="575" fill="rgb(0,0,0)" font-family="Arial" font-size="12">27</text>
<text x="465" y="575" fill="rgb(0,0,0)" font-family="Arial" font-size="12">28</text>
<rect width="29" height="520" x="488" y="40" style="fill:rgb(230,230,230);stroke:none"/>
<text x="494" y="575" fill="rgb(0,0,0)" font-family="Arial" font-size="12">29</text>
<text x="523" y="575" fill="rgb(0,0,0)" font-family="Arial" font-size="12">30</text>
<rect width="29" height="520" x="546" y="40" style="fill:rgb(230,230,230);stroke:none"/>
<text x="552" y="575" fill="rgb(0,0,0)" font-family="Arial" font-size="12">31</text>
<text x="581" y="575" fill="rgb(0,0,0)" font-family="Arial" font-size="12">32</text>
<rect width="29" height="520" x="604" y="40" style="fill:rgb(230,230,230);stroke:none"/>
<text x="610" y="575" fill="rgb(0,0,0)" font-family="Arial" font-size="12">33</text>
<text x="639" y="575" fill="rgb(0,0,0)" font-family="Arial" font-size="12">34</text>
<rect width="29" height="520" x="662" y="40" style="fill:rgb(230,230,230);stroke:none"/>
<text x="668" y="575" fill="rgb(0,0,0)" font-family="Arial" font-size="12">35</text>
<text x="697" y="575" fill="rgb(0,0,0)" font-family="Arial" font-size="12">36</text>
<rect width="29" height="520" x="720" y="40" style="fill:rgb(230,230,230);stroke:none"/>
<text x="726" y="575" fill="rgb(0,0,0)" font-family="Arial" font-size="12">37</text>
<text x="755" y="575" fill="rgb(0,0,0)" font-family="Arial" font-size="12">38</text>
<line x1="53" y1="560" x2="790" y2="560" stroke="rgb(180,180,180)" stroke-width="1"/>
<line x1="53" y1="501" x2="790" y2="501" stroke="rgb(180,180,180)" stroke-width="1"/>
<line x1="53" y1="441" x2="790" y2="441" stroke="rgb(180,180,180)" stroke-width="1"/>
<line x1="53" y1="381" x2="790" y2="381" stroke="rgb(180,180,180)" stroke-width="1"/>
<line x1="53" y1="321" x2="790" y2="321" stroke="rgb(180,180,180)" stroke-width="1"/>
<line x1="53" y1="261" x2="790" y2="261" stroke="rgb(180,180,180)" stroke-width="1"/>
<line x1="53" y1="201" x2="790" y2="201" stroke="rgb(180,180,180)" stroke-width="1"/>
<line x1="53" y1="142" x2="790" y2="142" stroke="rgb(180,180,180)" stroke-width="1"/>
<line x1="53" y1="82" x2="790" y2="82" stroke="rgb(180,180,180)" stroke-width="1"/>
<line x1="67" y1="560" x2="96" y2="560" stroke="rgb(136,34,85)" stroke-width="1"/>
<line x1="96" y1="560" x2="125" y2="560" stroke="rgb(136,34,85)" stroke-width="1"/>
<line x1="125" y1="560" x2="154" y2="560" stroke="rgb(136,34,85)" stroke-width="1"/>
<line x1="154" y1="560" x2="183" y2="560" stroke="rgb(136,34,85)" stroke-width="1"/>
<line x1="183" y1="560" x2="212" y2="560" stroke="rgb(136,34,85)" stroke-width="1"/>
<line x1="212" y1="560" x2="241" y2="560" stroke="rgb(136,34,85)" stroke-width="1"/>
<line x1="241" y1="560" x2="270" y2="560" stroke="rgb(136,34,85)" stroke-width="1"/>
<line x1="270" y1="560" x2="299" y2="559" stroke="rgb(136,34,85)" stroke-width="1"/>
<line x1="299" y1="559" x2="328" y2="558" stroke="rgb(136,34,85)" stroke-width="1"/>
<line x1="328" y1="558" x2="357" y2="558" stroke="rgb(136,34,85)" stroke-width="1"/>
<line x1="357" y1="558" x2="386" y2="556" stroke="rgb(136,34,85)" stroke-width="1"/>
<line x1="386" y1="556" x2="415" y2="555" stroke="rgb(136,34,85)" stroke-width="1"/>
<line x1="415" y1="555" x2="444" y2="554" stroke="rgb(136,34,85)" stroke-width="1"/>
<line x1="444" y1="554" x2="473" y2="552" stroke="rgb(136,34,85)" stroke-width="1"/>
<line x1="473" y1="552" x2="502" y2="551" stroke="rgb(136,34,85)" stroke-width="1"/>
<line x1="502" y1="551" x2="531" y2="548" stroke="rgb(136,34,85)" stroke-width="1"/>
<line x1="531" y1="548" x2="560" y2="545" stroke="rgb(136,34,85)" stroke-width="1"/>
<line x1="560" y1="545" x2="589" y2="541" stroke="rgb(136,34,85)" stroke-width="1"/>
<line x1="589" y1="541" x2="618" y2="535" stroke="rgb(136,34,85)" stroke-width="1"/>
<line x1="618" y1="535" x2="647" y2="526" stroke="rgb(136,34,85)" stroke-width="1"/>
<line x1="647" y1="526" x2="676" y2="508" stroke="rgb(136,34,85)" stroke-width="1"/>
<line x1="676" y1="508" x2="705" y2="464" stroke="rgb(136,34,85)" stroke-width="1"/>
<line x1="705" y1="464" x2="734" y2="40" stroke="rgb(136,34,85)" stroke-width="1"/>
<line x1="734" y1="40" x2="763" y2="275" stroke="rgb(136,34,85)" stroke-width="1"/>
<rect width="183" height="23" x="607" y="40" style="fill:rgb(255,255,255);stroke:none"/>
<rect width="183" height="23" x="607" y="40" rx="0" ry="0" style="fill:none;stroke-width:1;stroke:rgb(192,192,192)"/>
<text x="610" y="55" fill="rgb(136,34,85)" font-family="Arial" font-size="12" font-weight="bold">Average Quality per read</text>
</svg>
